<svg width="1222" height="499" xmlns="http://www.w3.org/2000/svg" xmlns:xlink="http://www.w3.org/1999/xlink" overflow="hidden"><defs><clipPath id="clip0"><path d="M42 89 1264 89 1264 588 42 588Z" fill-rule="evenodd" clip-rule="evenodd"/></clipPath></defs><g clip-path="url(#clip0)" transform="translate(-42 -89)"><text font-family="Consolas,Consolas_MSFontService,sans-serif" font-weight="400" font-size="27" transform="translate(58.4135 124)">1 <tspan x="29.3333" y="0">Define </tspan>sets of model parameter values to evaluate<tspan x="0" y="40">2   </tspan><tspan font-weight="700" x="58.6667" y="40">for</tspan><tspan x="117.333" y="40">each parameter set </tspan><tspan font-weight="700" x="396" y="40">do</tspan><tspan x="0" y="80">3</tspan><tspan font-weight="700" x="109.333" y="80">for</tspan><tspan x="168" y="80">each resampling iteration </tspan><tspan font-weight="700" x="549.333" y="80">do</tspan><tspan x="0" y="120">4</tspan><tspan x="197.333" y="120">Hold</tspan>-<tspan x="270.667" y="120">out </tspan>specific samples      <tspan x="0" y="160">5</tspan><tspan x="197.333" y="160">[Optional] </tspan>Pre-process the data<tspan x="0" y="200">6</tspan><tspan x="197.333" y="200">Fit the model on the remainder</tspan><tspan x="0" y="240">7</tspan><tspan x="197.333" y="240">Predict the </tspan><tspan x="373.333" y="240">hold</tspan>-<tspan x="446.667" y="240">out samples</tspan><tspan x="0" y="280">8</tspan><tspan font-weight="700" x="109.333" y="280">end</tspan><tspan x="0" y="320">9</tspan><tspan x="109.333" y="320">Calculate the average performance across hold</tspan>-<tspan x="784" y="320">out predictions</tspan><tspan x="0" y="360">10</tspan><tspan font-weight="700" x="50.6667" y="360">end</tspan><tspan x="0" y="400">11</tspan><tspan x="50.6667" y="400">Determine the optimal parameter set      </tspan><tspan x="0" y="440">12</tspan><tspan x="50.6667" y="440">Fit the final model to all the training data using the optimal parameter set</tspan></text><path d="M137 168 137 462.803" stroke="#7F7F7F" stroke-width="4" stroke-miterlimit="8" fill="none" fill-rule="evenodd"/><path d="M191 211 191 388.638" stroke="#7F7F7F" stroke-width="4" stroke-miterlimit="8" fill="none" fill-rule="evenodd"/></g></svg>