<?xml version="1.0" encoding="UTF-8" ?>
<!DOCTYPE svg PUBLIC "-//W3C//DTD SVG 1.1//EN" "http://www.w3.org/Graphics/SVG/1.1/DTD/svg11.dtd">
<svg width="150pt" height="51pt" viewBox="0 0 150 51" version="1.1" xmlns="http://www.w3.org/2000/svg">
<g id="#ffffffff">
</g>
<g id="#e56825ff">
<path fill="#e56825" opacity="1.00" d=" M 9.00 0.00 L 10.79 0.00 C 22.60 0.62 32.51 11.33 32.28 23.14 C 30.67 23.12 29.06 23.10 27.44 23.08 C 27.36 13.29 18.85 4.66 9.00 4.81 C 9.00 3.20 9.00 1.60 9.00 0.00 Z" />
<path fill="#e56825" opacity="1.00" d=" M 9.91 22.04 C 7.42 20.13 9.98 15.68 12.92 16.81 C 15.45 17.20 15.12 19.97 15.22 21.87 C 13.61 22.65 11.28 23.92 9.91 22.04 Z" />
</g>
<g id="#00336aff">
<path fill="#00336a" opacity="1.00" d=" M 0.00 7.63 C 2.38 6.65 4.98 6.74 7.50 6.68 C 5.80 13.05 5.90 19.63 6.00 26.18 C 12.65 26.81 19.05 24.20 25.69 24.95 C 23.72 26.66 21.54 28.09 19.17 29.18 C 21.24 30.69 23.18 32.48 24.21 34.89 C 26.48 39.91 28.73 44.97 30.42 50.23 C 28.35 50.25 26.15 50.82 24.17 50.00 C 21.04 44.79 20.19 38.40 16.37 33.58 C 13.87 30.49 9.56 30.85 6.01 30.99 L 5.14 31.08 C 4.82 37.52 5.20 43.97 4.82 50.41 C 3.21 50.41 1.60 50.30 0.00 50.18 L 0.00 7.63 Z" />
</g>
<g id="#6d4f5bff">
<path fill="#6d4f5b" opacity="1.00" d=" M 9.00 6.78 C 14.46 6.73 19.99 9.37 22.89 14.08 C 24.66 16.69 25.20 19.85 25.73 22.90 C 24.13 23.01 22.52 23.09 20.92 23.18 C 20.59 16.93 15.49 11.33 9.00 11.61 C 9.00 10.00 9.00 8.39 9.00 6.78 Z" />
</g>
<g id="#00235eff">
<path fill="#00235e" opacity="1.00" d=" M 48.87 26.88 C 49.40 26.89 50.47 26.91 51.00 26.92 C 51.01 29.49 51.02 32.06 50.98 34.63 C 52.74 33.06 55.36 32.08 57.59 33.27 C 60.70 35.39 60.46 39.95 59.48 43.14 C 58.43 46.57 53.89 47.13 51.41 44.90 C 50.78 45.27 49.51 46.00 48.88 46.37 C 48.82 39.87 48.85 33.37 48.87 26.88 M 51.00 36.92 C 51.00 38.69 51.01 40.45 50.99 42.21 C 52.53 43.42 54.66 45.44 56.54 43.61 C 58.25 41.23 58.30 37.87 56.66 35.45 C 54.73 33.53 52.50 35.57 51.00 36.92 Z" />
<path fill="#00235e" opacity="1.00" d=" M 134.19 34.66 C 135.25 32.54 139.74 31.61 139.22 35.06 C 136.98 34.51 135.27 35.58 133.99 37.32 C 134.01 40.21 134.01 43.11 134.00 46.00 C 133.48 46.00 132.45 46.00 131.94 46.00 C 131.95 41.53 131.91 37.06 131.98 32.60 C 132.53 33.11 133.63 34.14 134.19 34.66 Z" />
<path fill="#00235e" opacity="1.00" d=" M 72.76 34.76 C 74.40 32.53 77.49 32.58 79.95 32.99 C 84.53 34.76 84.69 41.50 81.72 44.79 C 78.88 47.24 74.35 46.53 71.94 43.79 C 71.31 40.81 70.73 37.36 72.76 34.76 M 75.39 35.11 C 73.37 36.71 73.51 39.67 74.03 41.94 C 74.63 44.97 79.48 45.25 80.71 42.56 C 81.48 40.60 81.42 38.36 80.75 36.37 C 79.78 34.41 77.17 34.28 75.39 35.11 Z" />
<path fill="#00235e" opacity="1.00" d=" M 88.31 34.37 C 91.21 31.64 95.80 32.99 99.29 33.67 C 98.63 34.08 97.30 34.90 96.64 35.32 C 96.85 36.54 97.05 37.76 97.25 38.98 C 95.07 41.75 91.61 41.65 88.42 41.41 C 90.54 44.86 95.61 42.07 98.00 45.21 C 99.23 48.32 96.57 50.53 93.75 51.00 L 90.55 51.00 C 89.32 50.60 88.10 50.18 86.89 49.76 C 86.99 48.05 87.21 46.35 87.62 44.68 C 87.62 41.26 87.05 37.61 88.31 34.37 M 90.13 35.15 C 89.44 36.50 89.30 38.37 90.68 39.37 C 92.78 41.68 96.59 37.55 94.38 35.52 C 93.34 34.09 91.43 34.10 90.13 35.15 M 90.53 45.13 L 89.59 45.59 C 86.76 49.61 94.40 50.54 95.98 47.68 C 96.63 44.74 92.42 45.02 90.53 45.13 Z" />
<path fill="#00235e" opacity="1.00" d=" M 119.24 33.22 C 121.36 32.55 124.19 32.35 125.80 34.22 C 127.49 35.68 127.04 38.03 127.21 40.01 C 124.09 40.00 120.96 39.98 117.84 40.08 C 118.67 41.61 118.82 44.01 120.97 44.25 C 123.17 44.70 125.38 43.81 127.58 43.64 C 126.05 46.75 122.16 46.51 119.29 45.87 C 114.60 43.62 114.74 35.64 119.24 33.22 M 117.89 38.23 C 120.37 38.27 122.85 38.30 125.33 38.29 C 124.97 36.31 123.34 33.62 120.99 34.57 C 119.12 34.86 118.73 36.87 117.89 38.23 Z" />
<path fill="#00235e" opacity="1.00" d=" M 143.40 33.28 C 145.59 32.09 148.07 33.12 150.00 34.33 L 150.00 34.80 C 147.81 34.66 145.62 34.64 143.44 34.77 C 143.80 38.34 147.75 38.90 150.00 40.95 L 150.00 43.86 C 147.62 47.04 142.29 47.19 140.28 43.55 C 143.22 44.00 146.60 45.37 148.55 42.28 C 146.48 41.00 144.23 40.01 142.27 38.56 C 140.95 36.92 141.42 34.15 143.40 33.28 Z" />
</g>
<g id="#00215dff">
<path fill="#00215d" opacity="1.00" d=" M 64.66 26.88 C 65.24 26.89 66.40 26.93 66.98 26.95 C 67.00 33.30 66.97 39.65 67.00 46.00 C 66.40 46.00 65.21 46.01 64.61 46.01 C 64.67 39.63 64.60 33.25 64.66 26.88 Z" />
</g>
<g id="#000a4bff">
<path fill="#000a4b" opacity="1.00" d=" M 5.14 31.08 L 6.01 30.99 C 5.95 37.29 6.09 43.60 5.96 49.90 L 4.82 50.41 C 5.20 43.97 4.82 37.52 5.14 31.08 Z" />
</g>
<g id="#002b64ff">
<path fill="#002b64" opacity="1.00" d=" M 104.39 33.18 C 107.21 32.58 110.14 32.99 113.00 32.96 C 113.00 33.46 113.00 34.45 113.00 34.95 C 112.56 34.92 111.69 34.86 111.26 34.83 C 111.40 36.66 112.06 38.95 110.36 40.31 C 108.60 42.27 105.72 41.19 103.47 41.27 C 104.85 44.87 109.91 42.23 112.19 44.79 C 113.73 46.22 112.35 48.19 112.00 49.83 C 110.79 50.23 109.57 50.62 108.35 51.00 L 105.23 51.00 C 104.08 50.47 102.41 50.48 101.77 49.22 C 100.40 47.74 102.02 46.05 102.50 44.57 C 101.88 43.03 102.11 41.41 102.43 39.83 C 101.77 37.41 101.79 34.45 104.39 33.18 M 104.50 38.58 C 105.62 40.79 108.81 40.26 109.31 37.86 C 110.23 36.08 108.10 34.85 106.92 33.96 C 105.43 34.93 102.99 36.56 104.50 38.58 M 105.03 44.93 C 104.46 45.70 103.88 46.48 103.31 47.26 C 103.54 47.70 104.00 48.59 104.23 49.03 C 106.58 49.03 110.12 49.96 110.87 46.86 C 109.75 44.66 107.04 45.32 105.03 44.93 Z" />
</g>
<g id="#e56c2dff">
<path fill="#e56c2d" opacity="1.00" d=" M 38.00 37.97 C 40.46 38.36 44.08 36.87 45.32 39.81 C 42.88 40.02 40.44 40.03 38.00 40.03 C 38.00 39.52 38.00 38.49 38.00 37.97 Z" />
</g>
</svg>
