<?xml version="1.0" encoding="UTF-8" ?>
<!DOCTYPE svg PUBLIC "-//W3C//DTD SVG 1.1//EN" "http://www.w3.org/Graphics/SVG/1.1/DTD/svg11.dtd">
<svg width="250pt" height="49pt" viewBox="0 0 250 49" version="1.1" xmlns="http://www.w3.org/2000/svg">
<g id="#ffffffff">
</g>
<g id="#f48023ff">
<path fill="#f48023" opacity="1.00" d=" M 28.22 0.00 L 28.72 0.00 C 32.58 6.12 37.32 11.64 41.46 17.57 C 40.31 18.45 39.16 19.34 38.00 20.23 C 33.62 14.35 29.22 8.47 24.86 2.57 C 25.98 1.72 27.11 0.87 28.22 0.00 Z" />
<path fill="#f48023" opacity="1.00" d=" M 17.50 10.18 C 18.48 9.10 19.47 8.02 20.46 6.94 C 25.93 11.75 31.61 16.32 37.22 20.97 C 36.32 22.09 35.43 23.21 34.54 24.34 C 28.73 19.78 23.05 15.04 17.50 10.18 Z" />
<path fill="#f48023" opacity="1.00" d=" M 13.98 16.08 C 20.55 19.20 27.14 22.30 33.77 25.30 C 33.14 26.63 32.51 27.95 31.88 29.28 C 25.19 26.27 18.58 23.10 11.94 20.01 C 12.63 18.70 13.30 17.39 13.98 16.08 Z" />
<path fill="#f48023" opacity="1.00" d=" M 10.09 25.94 C 17.20 27.63 24.40 28.94 31.52 30.58 C 31.25 32.01 30.98 33.44 30.72 34.87 C 23.56 33.33 16.41 31.79 9.22 30.41 C 9.52 28.92 9.81 27.43 10.09 25.94 Z" />
<path fill="#f48023" opacity="1.00" d=" M 8.82 36.00 C 16.14 36.00 23.46 36.00 30.78 36.00 C 30.77 37.41 30.76 38.82 30.76 40.23 C 23.45 40.28 16.14 40.23 8.83 40.26 C 8.83 38.84 8.82 37.42 8.82 36.00 Z" />
</g>
<g id="#202224ff">
<path fill="#202224" opacity="1.00" d=" M 104.55 40.15 C 104.40 31.74 104.18 23.23 104.65 14.86 C 105.24 14.78 106.41 14.64 107.00 14.57 C 107.00 19.83 106.99 25.09 107.00 30.36 C 110.76 27.67 113.09 22.02 118.33 22.37 C 116.28 24.63 114.08 26.76 111.89 28.89 C 114.45 32.63 116.82 36.49 119.33 40.26 C 118.54 40.27 116.94 40.29 116.14 40.30 C 114.10 37.11 112.13 33.88 110.16 30.66 C 109.10 31.71 108.05 32.77 107.00 33.82 C 107.00 36.02 107.00 38.22 107.00 40.42 C 106.39 40.35 105.16 40.21 104.55 40.15 Z" />
<path fill="#202224" opacity="1.00" d=" M 191.33 15.00 C 193.09 14.85 194.86 14.72 196.64 14.61 C 196.64 15.56 196.63 17.46 196.63 18.41 C 195.49 18.60 194.35 18.81 193.21 19.04 C 193.16 19.81 193.04 21.36 192.99 22.13 C 194.21 22.16 195.43 22.18 196.65 22.21 C 196.64 23.41 196.63 24.62 196.62 25.82 C 195.43 25.83 194.24 25.84 193.05 25.85 C 193.15 30.66 193.09 35.46 193.12 40.27 C 191.60 40.26 190.09 40.26 188.58 40.25 C 188.80 32.60 188.19 24.92 188.94 17.29 C 189.74 16.53 190.53 15.77 191.33 15.00 Z" />
<path fill="#202224" opacity="1.00" d=" M 198.84 14.69 C 200.35 14.69 201.87 14.70 203.38 14.70 C 203.34 21.75 203.37 28.80 203.36 35.85 C 204.50 36.14 205.65 36.38 206.82 36.56 C 206.86 37.80 206.90 39.05 206.95 40.30 C 204.02 40.35 200.16 40.43 199.05 37.02 C 198.57 29.59 198.99 22.13 198.84 14.69 Z" />
<path fill="#202224" opacity="1.00" d=" M 64.00 17.00 C 64.63 17.01 65.89 17.02 66.52 17.03 C 66.52 19.00 66.50 20.96 66.45 22.93 C 68.13 22.97 69.80 22.98 71.48 23.05 C 70.26 24.62 68.54 25.62 66.51 25.53 C 66.62 29.18 66.28 32.86 66.70 36.49 C 66.81 38.36 69.02 37.77 70.27 38.14 C 70.27 38.70 70.27 39.83 70.27 40.40 C 67.73 40.45 64.77 39.93 64.05 37.07 C 63.89 30.38 64.06 23.69 64.00 17.00 Z" />
<path fill="#202224" opacity="1.00" d=" M 127.29 22.17 C 130.48 21.23 134.51 21.55 136.68 24.37 C 138.85 27.44 138.31 31.49 137.96 35.02 C 136.83 41.14 127.66 42.41 124.18 37.63 C 122.34 35.03 122.78 31.63 122.84 28.63 C 122.86 25.82 124.67 23.19 127.29 22.17 M 128.44 26.48 C 126.45 29.27 127.22 32.93 128.18 35.96 C 129.72 36.22 131.28 36.18 132.82 35.96 C 133.71 33.16 134.43 29.88 132.97 27.14 C 132.22 25.46 129.74 25.60 128.44 26.48 Z" />
<path fill="#202224" opacity="1.00" d=" M 138.24 22.05 C 139.85 21.99 141.47 21.94 143.08 21.89 C 144.41 25.58 145.61 29.31 146.69 33.07 C 148.31 29.67 149.06 25.96 150.41 22.47 C 151.63 21.31 153.85 22.26 155.42 21.91 C 153.27 28.01 150.88 34.03 148.82 40.17 C 147.59 40.22 146.35 40.28 145.12 40.33 C 142.72 34.28 140.67 28.10 138.24 22.05 Z" />
<path fill="#202224" opacity="1.00" d=" M 156.42 25.58 C 158.80 20.54 167.00 20.34 169.86 25.00 C 171.45 27.17 171.14 29.98 171.44 32.51 C 167.50 32.57 163.56 32.53 159.63 32.54 C 159.82 37.09 165.37 37.65 168.13 34.98 C 169.07 35.84 170.01 36.70 170.96 37.56 C 167.21 41.66 159.08 41.80 156.32 36.54 C 154.79 33.10 154.78 28.98 156.42 25.58 M 159.64 29.34 C 162.13 29.35 164.63 29.33 167.13 29.29 C 166.66 28.22 166.19 27.14 165.73 26.06 C 163.05 24.56 159.78 26.20 159.64 29.34 Z" />
<path fill="#202224" opacity="1.00" d=" M 173.65 21.96 C 175.10 21.95 176.54 21.95 177.99 21.95 L 178.04 23.41 C 180.71 21.38 184.75 20.93 187.27 23.46 C 186.05 24.56 184.86 25.68 183.65 26.78 C 181.91 25.26 178.74 25.67 178.33 28.22 C 177.97 32.22 178.27 36.25 178.20 40.27 C 176.68 40.26 175.17 40.26 173.66 40.26 C 173.68 34.16 173.69 28.06 173.65 21.96 Z" />
<path fill="#202224" opacity="1.00" d=" M 212.30 22.21 C 216.14 20.86 221.36 22.00 222.80 26.23 C 223.56 29.35 223.54 32.67 222.87 35.81 C 221.00 41.30 212.58 42.16 209.26 37.62 C 207.44 35.14 207.88 31.89 207.90 28.99 C 207.79 26.10 209.62 23.31 212.30 22.21 M 213.11 27.17 C 211.70 29.86 212.41 33.05 213.20 35.83 C 214.73 36.21 216.30 36.20 217.87 36.02 C 218.89 32.89 219.91 28.56 217.11 26.06 C 215.73 25.83 213.76 25.54 213.11 27.17 Z" />
<path fill="#202224" opacity="1.00" d=" M 223.39 21.86 C 224.97 21.91 226.54 21.91 228.12 22.04 C 229.65 25.65 230.17 29.59 231.37 33.32 C 232.52 29.47 233.76 25.64 235.08 21.84 C 236.27 21.94 237.45 22.03 238.64 22.13 C 239.70 25.89 240.92 29.60 242.33 33.24 C 243.17 29.46 244.16 25.72 245.11 21.98 C 246.74 21.96 248.37 21.95 250.00 21.93 L 250.00 22.30 C 247.82 28.22 246.62 34.49 244.14 40.27 C 243.33 40.27 241.71 40.26 240.90 40.26 C 238.91 36.70 238.28 32.53 236.57 28.82 C 235.45 32.67 234.19 36.48 232.86 40.26 C 231.61 40.27 230.36 40.27 229.11 40.28 C 227.12 34.17 225.31 28.00 223.39 21.86 Z" />
<path fill="#202224" opacity="1.00" d=" M 49.96 23.74 C 53.23 21.67 58.06 21.92 61.04 24.41 C 60.72 24.81 60.06 25.60 59.73 26.00 C 57.18 24.83 54.10 23.85 51.50 25.44 C 50.08 26.86 50.93 28.60 51.92 29.94 C 55.07 30.35 59.40 29.62 61.30 32.80 C 63.28 35.93 60.34 40.07 56.91 40.27 C 53.77 40.76 49.65 40.65 47.56 37.94 C 48.22 35.46 50.59 37.41 51.99 37.88 C 53.99 38.28 56.55 38.65 58.27 37.32 C 59.76 36.44 58.95 34.51 59.00 33.16 C 55.67 32.40 52.13 32.46 49.00 30.96 C 47.90 28.61 47.59 25.44 49.96 23.74 Z" />
<path fill="#202224" opacity="1.00" d=" M 72.89 24.25 C 76.66 21.30 84.72 21.34 85.84 27.00 C 86.22 31.49 85.92 36.02 85.99 40.52 C 84.82 40.21 83.69 39.79 82.60 39.28 C 79.46 41.16 74.17 41.29 72.29 37.61 C 71.71 36.22 72.06 34.64 71.92 33.18 C 74.58 29.42 79.44 30.10 83.44 30.12 C 83.31 28.84 83.13 27.57 82.89 26.32 C 81.23 24.04 77.60 24.27 75.41 25.64 C 74.25 26.92 72.54 25.86 72.89 24.25 M 76.35 32.39 C 74.21 33.15 73.65 36.01 75.26 37.58 C 77.22 38.49 79.55 38.41 81.58 37.78 C 83.80 36.72 83.00 33.97 83.37 32.00 C 81.04 32.12 78.62 31.76 76.35 32.39 Z" />
<path fill="#202224" opacity="1.00" d=" M 92.35 23.16 C 95.63 21.61 99.48 22.42 102.07 24.87 C 100.47 27.86 98.24 24.47 96.01 24.73 C 93.16 24.57 90.76 27.18 90.94 29.97 C 90.84 32.42 90.60 35.43 92.80 37.11 C 95.06 39.10 98.23 37.87 100.46 36.49 C 102.16 37.42 102.11 38.37 100.30 39.32 C 98.06 40.98 94.91 40.73 92.42 39.76 C 86.66 36.43 86.67 26.57 92.35 23.16 Z" />
</g>
<g id="#bcbbbcff">
<path fill="#bcbbbc" opacity="1.00" d=" M -0.00 31.95 C 1.43 31.74 2.87 31.56 4.30 31.39 C 4.36 35.82 4.36 40.26 4.33 44.69 C 14.53 44.76 24.73 44.61 34.92 44.78 C 35.00 40.37 35.01 35.96 34.99 31.55 C 36.44 31.58 37.90 31.61 39.36 31.63 C 39.41 37.42 39.39 43.21 39.39 49.00 L 0.00 49.00 L 0.00 31.95 Z" />
</g>
</svg>
