<svg width="948" height="513" xmlns="http://www.w3.org/2000/svg" xmlns:xlink="http://www.w3.org/1999/xlink" overflow="hidden"><defs><clipPath id="clip0"><path d="M150 78 1098 78 1098 591 150 591Z" fill-rule="evenodd" clip-rule="evenodd"/></clipPath></defs><g clip-path="url(#clip0)" transform="translate(-150 -78)"><path d="M151.5 132.5 1096.38 132.5" stroke="#7F7F7F" stroke-width="3" stroke-miterlimit="8" stroke-dasharray="9 3" fill="none" fill-rule="evenodd"/><path d="M463.5 110.5 463.5 589.228" stroke="#7F7F7F" stroke-width="3" stroke-miterlimit="8" stroke-dasharray="9 3" fill="none" fill-rule="evenodd"/><path d="M815.5 110.5 815.5 589.228" stroke="#7F7F7F" stroke-width="3" stroke-miterlimit="8" stroke-dasharray="9 3" fill="none" fill-rule="evenodd"/><text font-family="Arial,Arial_MSFontService,sans-serif" font-weight="700" font-size="32" transform="translate(251.423 119)">Inputs<tspan x="662.97" y="0">Output</tspan><tspan x="295.34" y="0">Optimization</tspan></text><path d="M419.5 352.75 499 352.75 499 334.5 535.5 371 499 407.5 499 389.25 419.5 389.25Z" stroke="#41719C" stroke-miterlimit="8" fill="#739ED1" fill-rule="evenodd"/><path d="M768.5 352.75 848 352.75 848 334.5 884.5 371 848 407.5 848 389.25 768.5 389.25Z" stroke="#41719C" stroke-miterlimit="8" fill="#739ED1" fill-rule="evenodd"/><rect x="541.5" y="311.5" width="215" height="120" stroke="#7F7F7F" stroke-miterlimit="8" fill="#D0CECE"/><text font-family="Arial,Arial_MSFontService,sans-serif" font-weight="400" font-size="32" transform="translate(559.428 367)">Optimization<tspan x="39.0867" y="39">Engine</tspan></text><rect x="892.5" y="327.5" width="167" height="97" stroke="#507E32" stroke-miterlimit="8" fill="#4AFE03"/><text font-family="Arial,Arial_MSFontService,sans-serif" font-weight="400" font-size="32" transform="translate(921.108 367)">Optimal<tspan x="0.833374" y="39">Portfolio</tspan></text><path d="M186.5 199C186.5 174.423 239.33 154.5 304.5 154.5 369.67 154.5 422.5 174.423 422.5 199 422.5 223.577 369.67 243.5 304.5 243.5 239.33 243.5 186.5 223.577 186.5 199Z" stroke="#41719C" stroke-miterlimit="8" fill="#739ECF" fill-rule="evenodd"/><text font-family="Arial,Arial_MSFontService,sans-serif" font-weight="400" font-size="31" transform="translate(258.027 212)">Assets</text><path d="M186.5 308.5C186.5 284.2 239.33 264.5 304.5 264.5 369.67 264.5 422.5 284.2 422.5 308.5 422.5 332.801 369.67 352.5 304.5 352.5 239.33 352.5 186.5 332.801 186.5 308.5Z" stroke="#41719C" stroke-miterlimit="8" fill="#739ECF" fill-rule="evenodd"/><text font-family="Arial,Arial_MSFontService,sans-serif" font-weight="400" font-size="31" transform="translate(227.246 321)">Constraints</text><path d="M186.5 418C186.5 393.423 239.33 373.5 304.5 373.5 369.67 373.5 422.5 393.423 422.5 418 422.5 442.577 369.67 462.5 304.5 462.5 239.33 462.5 186.5 442.577 186.5 418Z" stroke="#41719C" stroke-miterlimit="8" fill="#739ECF" fill-rule="evenodd"/><text font-family="Arial,Arial_MSFontService,sans-serif" font-weight="400" font-size="31" transform="translate(232.527 430)">Objectives</text><path d="M186.5 527C186.5 502.423 239.33 482.5 304.5 482.5 369.67 482.5 422.5 502.423 422.5 527 422.5 551.577 369.67 571.5 304.5 571.5 239.33 571.5 186.5 551.577 186.5 527Z" stroke="#41719C" stroke-miterlimit="8" fill="#739ECF" fill-rule="evenodd"/><text font-family="Arial,Arial_MSFontService,sans-serif" font-weight="400" font-size="31" transform="translate(216.813 524)">Asset Return<tspan x="25.5867" y="37">Moments</tspan></text></g></svg>